<svg width="532" height="388" viewBox="0 0 532 388" fill="none" xmlns="http://www.w3.org/2000/svg">
<rect width="532" height="388" fill="white"/>
<path d="M447.545 34H84.3228C79.4654 34.0071 74.8089 36.0048 71.3742 39.5552C67.9395 43.1056 66.0069 47.9189 66 52.9398V334.809C66.0069 339.83 67.9395 344.643 71.3742 348.194C74.8089 351.744 79.4654 353.742 84.3228 353.749H447.545C452.403 353.742 457.059 351.744 460.494 348.194C463.929 344.643 465.861 339.83 465.868 334.809V52.9398C465.861 47.9189 463.929 43.1056 460.494 39.5552C457.059 36.0048 452.403 34.0071 447.545 34ZM463.712 334.809C463.707 339.239 462.002 343.487 458.971 346.62C455.941 349.753 451.831 351.515 447.545 351.521H84.3228C80.0366 351.515 75.9274 349.753 72.8966 346.62C69.8658 343.487 68.1608 339.239 68.1556 334.809V52.9398C68.1608 48.5093 69.8658 44.2618 72.8966 41.1289C75.9274 37.996 80.0366 36.2336 84.3228 36.2282H447.545C451.831 36.2336 455.941 37.996 458.971 41.1289C462.002 44.2618 463.707 48.5093 463.712 52.9398V334.809Z" fill="#3F3D56"/>
<path d="M103.375 225.23C148.317 225.23 184.75 187.571 184.75 141.115C184.75 94.6596 148.317 57 103.375 57C58.4327 57 22 94.6596 22 141.115C22 187.571 58.4327 225.23 103.375 225.23Z" fill="#6C63FF"/>
<path d="M465.868 251.791V275.109H66V251.679L68.1556 248.47L194.928 59.7741C195.503 58.918 196.27 58.2185 197.163 57.7354C198.057 57.2523 199.05 57 200.058 57C201.067 57 202.06 57.2523 202.953 57.7354C203.847 58.2185 204.614 58.918 205.189 59.7741L290.206 186.303L350.725 97.0187C351.301 96.1673 352.067 95.472 352.959 94.992C353.85 94.5119 354.84 94.2613 355.845 94.2613C356.85 94.2613 357.84 94.5119 358.731 94.992C359.623 95.472 360.389 96.1673 360.965 97.0187L463.712 248.604L465.868 251.791Z" fill="#3F3D56"/>
<path d="M151.665 313.228H88.0745C87.7892 313.227 87.5159 313.11 87.3145 312.901C87.1131 312.692 87 312.409 87 312.114C87 311.819 87.1131 311.536 87.3145 311.328C87.5159 311.119 87.7892 311.001 88.0745 311H151.665C151.951 311 152.225 311.117 152.428 311.326C152.63 311.535 152.743 311.819 152.743 312.114C152.743 312.41 152.63 312.693 152.428 312.902C152.225 313.111 151.951 313.228 151.665 313.228Z" fill="#3F3D56"/>
<path d="M249.672 316.228H186.081C185.939 316.229 185.799 316.2 185.668 316.144C185.536 316.089 185.417 316.007 185.317 315.903C185.216 315.8 185.137 315.677 185.082 315.541C185.028 315.406 185 315.261 185 315.114C185 314.968 185.028 314.822 185.082 314.687C185.137 314.552 185.216 314.429 185.317 314.325C185.417 314.222 185.536 314.14 185.668 314.084C185.799 314.028 185.939 314 186.081 314H249.672C249.958 314 250.232 314.117 250.434 314.326C250.636 314.535 250.75 314.819 250.75 315.114C250.75 315.41 250.636 315.693 250.434 315.902C250.232 316.111 249.958 316.228 249.672 316.228Z" fill="#3F3D56"/>
<path d="M353.665 315.228H290.075C289.789 315.227 289.516 315.11 289.315 314.901C289.113 314.692 289 314.409 289 314.114C289 313.819 289.113 313.536 289.315 313.328C289.516 313.119 289.789 313.001 290.075 313H353.665C353.951 313 354.225 313.117 354.428 313.326C354.63 313.535 354.743 313.819 354.743 314.114C354.743 314.41 354.63 314.693 354.428 314.902C354.225 315.111 353.951 315.228 353.665 315.228Z" fill="#3F3D56"/>
<path d="M454.665 313.228H391.075C390.789 313.227 390.516 313.11 390.315 312.901C390.113 312.692 390 312.409 390 312.114C390 311.819 390.113 311.536 390.315 311.328C390.516 311.119 390.789 311.001 391.075 311H454.665C454.951 311 455.225 311.117 455.428 311.326C455.63 311.535 455.743 311.819 455.743 312.114C455.743 312.41 455.63 312.693 455.428 312.902C455.225 313.111 454.951 313.228 454.665 313.228Z" fill="#3F3D56"/>
<path d="M264.669 102C258.841 101.996 253.092 103.389 247.874 106.071C242.655 108.753 238.111 112.651 234.597 117.457C230.825 115.779 226.71 115.096 222.62 115.468C218.53 115.841 214.593 117.257 211.164 119.59C207.734 121.924 204.919 125.101 202.97 128.836C201.022 132.572 200.001 136.75 200 140.994H302.392C302.392 135.873 301.416 130.802 299.521 126.071C297.625 121.341 294.846 117.042 291.343 113.421C287.84 109.8 283.682 106.928 279.105 104.968C274.528 103.009 269.623 102 264.669 102Z" fill="#CCCCCC"/>
<path d="M407.416 141C402.692 140.996 398.032 142.126 393.803 144.3C389.573 146.474 385.89 149.633 383.042 153.528C379.985 152.168 376.649 151.614 373.334 151.916C370.019 152.218 366.828 153.366 364.048 155.257C361.269 157.149 358.987 159.724 357.407 162.752C355.828 165.78 355.001 169.165 355 172.605H437.991C437.991 168.455 437.201 164.345 435.664 160.511C434.127 156.676 431.875 153.192 429.036 150.257C426.197 147.322 422.826 144.994 419.117 143.406C415.407 141.817 411.431 141 407.416 141Z" fill="#E6E6E6"/>
</svg>
